<?xml version="1.0" encoding="utf-8"?>
<!-- Generator: Adobe Illustrator 18.0.0, SVG Export Plug-In . SVG Version: 6.00 Build 0)  -->
<!DOCTYPE svg PUBLIC "-//W3C//DTD SVG 1.1//EN" "http://www.w3.org/Graphics/SVG/1.1/DTD/svg11.dtd">
<svg version="1.1" id="Layer_1" xmlns="http://www.w3.org/2000/svg" xmlns:xlink="http://www.w3.org/1999/xlink" x="0px" y="0px"
	 viewBox="0 0 64 64" enable-background="new 0 0 64 64" xml:space="preserve">
<g>
	<g>
		<g>
			<path fill="#FF6A4D" d="M32,0c17.7,0,32,14.3,32,32S49.7,64,32,64S0,49.7,0,32S14.3,0,32,0z"/>
		</g>
	</g>
	<g>
		<g>
			<path fill="#FFB133" d="M45,23v23H14V20c0-1.1,0.9-2,2-2h12.2c0.4,0,0.9,0.1,1.2,0.4l2.9,2.2c0.3,0.3,0.8,0.4,1.2,0.4h9.5
				C44.2,21,45,21.9,45,23z"/>
		</g>
	</g>
	<g>
		<g>
			<path fill="#FFFFFF" d="M42,46H17V27c0-1.1,1.1-2,2.2-2H40c1.1,0,2,0.9,2,2V46z"/>
		</g>
	</g>
	<g>
		<g>
			<path fill="#FFD731" d="M48,28c1.4,0,2.3,1.3,1.9,2.6L45,46H14l6.5-16.7c0.3-0.8,1-1.3,1.9-1.3h25.5H48z"/>
		</g>
	</g>
</g>
</svg>
