<?xml version="1.0" encoding="utf-8"?>
<!-- Generator: Adobe Illustrator 18.0.0, SVG Export Plug-In . SVG Version: 6.00 Build 0)  -->
<!DOCTYPE svg PUBLIC "-//W3C//DTD SVG 1.1//EN" "http://www.w3.org/Graphics/SVG/1.1/DTD/svg11.dtd">
<svg version="1.1" id="Layer_1" xmlns="http://www.w3.org/2000/svg" xmlns:xlink="http://www.w3.org/1999/xlink" x="0px" y="0px"
	 viewBox="0 0 64 64" enable-background="new 0 0 64 64" xml:space="preserve">
<g>
	<g>
		<g>
			<g>
				<path fill="#76D0E5" d="M32,0c17.7,0,32,14.3,32,32S49.7,64,32,64S0,49.7,0,32S14.3,0,32,0z"/>
			</g>
		</g>
	</g>
	<g>
		<g>
			<g>
				<polygon fill="#BF8143" points="51,43 13,43 13,33.7 19.9,14.2 44.1,14.2 51,33.7 				"/>
			</g>
		</g>
	</g>
	<g>
		<g>
			<g>
				<polygon fill="#A36934" points="17.6,33.7 22.2,21.1 41.8,21.1 46.4,33.7 46.4,41.8 17.6,41.8 				"/>
			</g>
		</g>
	</g>
	<g>
		<g>
			<g>
				<polygon fill="#D39053" points="41.8,21.1 22.2,21.1 19.9,14.2 44.1,14.2 				"/>
			</g>
		</g>
	</g>
	<g>
		<g>
			<g>
				<path fill="#FFFFFF" d="M19.9,34.9l3.6-10.7c0.2-0.5,0.6-0.8,1.1-0.8h14.8c0.5,0,0.9,0.3,1.1,0.8l3.6,10.7v6.9H19.9V34.9z"/>
			</g>
		</g>
	</g>
	<g>
		<g>
			<g>
				<path fill="#FFDC4A" d="M39.5,33.7L39.5,33.7l-1.7,3.3c-0.4,0.8-1.2,1.3-2.1,1.3h-7.5c-0.9,0-1.7-0.5-2.1-1.3l-1.7-3.3H13v13.8
					c0,1.3,1,2.3,2.3,2.3h33.4c1.3,0,2.3-1,2.3-2.3V33.7H39.5z"/>
			</g>
		</g>
	</g>
	<g>
		<g>
			<g>
				<path fill="#DDDCDB" d="M38.3,27.3H25.7c-0.3,0-0.5-0.2-0.5-0.5s0.2-0.5,0.5-0.5h12.7c0.3,0,0.5,0.2,0.5,0.5
					S38.6,27.3,38.3,27.3z"/>
			</g>
		</g>
	</g>
	<g>
		<g>
			<g>
				<path fill="#DDDCDB" d="M39.5,30.8h-15c-0.3,0-0.5-0.2-0.5-0.5s0.2-0.5,0.5-0.5h15c0.3,0,0.5,0.2,0.5,0.5S39.8,30.8,39.5,30.8z"
					/>
			</g>
		</g>
	</g>
</g>
</svg>
