<?xml version="1.0" encoding="utf-8"?>
<!-- Generator: Adobe Illustrator 18.0.0, SVG Export Plug-In . SVG Version: 6.00 Build 0)  -->
<!DOCTYPE svg PUBLIC "-//W3C//DTD SVG 1.1//EN" "http://www.w3.org/Graphics/SVG/1.1/DTD/svg11.dtd">
<svg version="1.1" id="Layer_1" xmlns="http://www.w3.org/2000/svg" xmlns:xlink="http://www.w3.org/1999/xlink" x="0px" y="0px"
	 viewBox="0 0 64 64" enable-background="new 0 0 64 64" xml:space="preserve">
<g>
	<g>
		<g>
			<path fill="#834BEF" d="M32,0c17.7,0,32,14.3,32,32S49.7,64,32,64S0,49.7,0,32S14.3,0,32,0z"/>
		</g>
	</g>
	<g>
		<g>
			<path fill="#8EB6CE" d="M18,49V19h28v30c0,2.2-1.8,4-4,4H22C19.8,53,18,51.2,18,49z"/>
		</g>
	</g>
	<g>
		<g>
			<g>
				<path fill="#8EB6CE" d="M39,17h-2.9v-4.3c0-0.3-0.2-0.5-0.5-0.5h-7.2c-0.3,0-0.5,0.2-0.5,0.5V17H25v-4.3c0-2.1,1.5-3.7,3.4-3.7
					h7.2c1.9,0,3.4,1.7,3.4,3.7V17z"/>
			</g>
		</g>
	</g>
	<g>
		<g>
			<g>
				<path fill="#6F8BB5" d="M25,47L25,47c-0.8,0-1.5-0.7-1.5-1.5v-17c0-0.8,0.7-1.5,1.5-1.5h0c0.8,0,1.5,0.7,1.5,1.5v17
					C26.5,46.3,25.8,47,25,47z"/>
			</g>
		</g>
	</g>
	<g>
		<g>
			<g>
				<path fill="#6F8BB5" d="M32,47L32,47c-0.8,0-1.5-0.7-1.5-1.5v-17c0-0.8,0.7-1.5,1.5-1.5h0c0.8,0,1.5,0.7,1.5,1.5v17
					C33.5,46.3,32.8,47,32,47z"/>
			</g>
		</g>
	</g>
	<g>
		<g>
			<g>
				<path fill="#6F8BB5" d="M39,47L39,47c-0.8,0-1.5-0.7-1.5-1.5v-17c0-0.8,0.7-1.5,1.5-1.5l0,0c0.8,0,1.5,0.7,1.5,1.5v17
					C40.5,46.3,39.8,47,39,47z"/>
			</g>
		</g>
	</g>
	<g>
		<g>
			<path fill="#A3D5E8" d="M49,21L49,21l-34,0v0c0-3.3,2.2-6,5-6h24C46.8,15,49,17.7,49,21z"/>
		</g>
	</g>
</g>
</svg>
